<?xml version="1.0" encoding="utf-8"?>
<!-- Generator: Adobe Illustrator 26.3.1, SVG Export Plug-In . SVG Version: 6.00 Build 0)  -->
<svg version="1.1" id="圖層_1" xmlns="http://www.w3.org/2000/svg" xmlns:xlink="http://www.w3.org/1999/xlink" x="0px" y="0px"
	 viewBox="0 0 914 412" style="enable-background:new 0 0 914 412;" xml:space="preserve">
<style type="text/css">
	.st0{clip-path:url(#SVGID_00000008832628356817202680000003601982233684418949_);}
</style>
<g>
	<g>
		<defs>
			<path id="SVGID_1_" d="M82,148.5c-11.8-2.9-23.3-1-35.1,1.1c-7.7,1.4-17.2,4.7-25.1,2.3c-24.5-7.5-7-32.6,1.7-44.7
				c11.8-16.4,25.4-31.9,34.9-49.7c2.5-4.7,8.7-14.4,1.8-18c-7.7-4.1-13,6.4-13.3,12c-1.2,17.6-29.9,17.7-28.8,0
				C19.3,34,29.5,16.9,48.3,12.3c16.4-4,35.4,4.3,41.4,19.7c7.3,18.5-4.8,37.9-14.9,53.1c-6,9-12.7,17.5-19.2,26.2
				c-2.5,3.4-5.1,6.8-7.5,10.2c3.4-0.6,6.8-1.1,10.2-1.4c10.7-1.2,21-0.8,31.4,1.8C107.6,126.4,99.9,152.9,82,148.5z M190.3,148.4
				c-11.8-2.9-23.3-1-35.1,1.1c-7.7,1.4-17.2,4.7-25.1,2.3c-24.5-7.5-7-32.6,1.7-44.7c11.8-16.4,25.4-31.9,34.9-49.7
				c2.5-4.7,8.7-14.4,1.8-18c-7.7-4.1-13,6.4-13.3,12c-1.2,17.6-29.9,17.7-28.8,0c1.2-17.6,11.3-34.7,30.2-39.3
				c16.4-4,35.4,4.4,41.4,19.7c7.3,18.5-4.8,37.9-14.9,53.1c-6,9-12.7,17.5-19.2,26.2c-2.6,3.4-5.1,6.8-7.6,10.2
				c3.4-0.6,6.8-1.1,10.2-1.4c10.7-1.2,21-0.8,31.4,1.8C215.8,126.3,208.2,152.9,190.3,148.4z M297.5,59.1c-5.7-0.7-11.3-1.2-17-1.6
				c-1.5,25.7-3.1,51.5-4.6,77.2c-1,17-27.5,17-26.5,0c1.5-25.8,3.1-51.7,4.6-77.5c-5.2,0.2-10.4,0.6-15.5,1.1
				c-17,1.7-16.8-24.8,0-26.5c19.7-2,39.3-1.7,59,0.8C314.1,34.7,314.3,61.2,297.5,59.1z M420.1,37.5c-6.4,32.4-10.7,65.2-13.1,98.1
				c-1.2,16.9-27.7,17-26.5,0c0.8-11.1,1.8-22.1,3-33.1l-24.3,0c-1.6,14-3.3,28-4.9,42c-2,16.8-28.5,16.9-26.5,0
				c2.3-19.4,4.5-38.8,6.8-58.3c1.1-9.3,2.2-18.7,3.3-28c1-8.3,0.9-18,3.8-25.9c5.9-15.9,31.5-9,25.5,7c-2.8,7.6-2.7,17.3-3.6,25.3
				c-0.4,3.8-0.9,7.6-1.3,11.4l24.5,0c2.1-15.3,4.7-30.5,7.6-45.6C397.8,13.7,423.3,20.8,420.1,37.5z M143.8,236.7
				c-7.1,4.9-25.1,11-54,17.7c-16.1,3.9-31.1,7.3-45.2,10.3c-4.2,0.7-7.4,1.2-9.4,1.2c-2.3,0.4-4.4,0.4-6.4,0.4
				c-3.2,0-5.1-2.3-5.5-6.5c0-1.9,1.4-3.7,4.6-5.3c1.9-0.5,4.4-1.2,7.2-2.1c17.7-2.8,35-6.4,51.6-10.5c23.8-5.3,42.4-9.9,55.4-14.2
				c1.8,0,3,0.7,3.9,2.1c0.2,0.4,0.4,1.1,0.4,1.8C146.5,233.2,145.6,234.9,143.8,236.7z M45,332.8c-0.2,2.1-0.7,8.3-1.8,18.9
				c-0.5,6-0.7,11.1-0.7,15.5c0,3.9,0.4,9,1.1,15.4c0.4,3.7,1.2,7.4,2.5,11v1.8c-0.2,3.2-1.8,4.8-4.8,4.8c-1.8,0-3.4-1.4-4.8-3.9
				c-4.6-8.3-7.1-21.2-7.1-38.5c0-4.6,0.9-12.4,2.6-23.3c0.3-2.8,0.5-5.8,0.5-8.6c0-1.6,0.7-3.2,2.1-5c1.1-1.1,2.3-1.8,3.9-2.1H40
				c3.2,0.7,5.1,2.6,5.7,5.8C45.5,327.9,45.3,330.7,45,332.8z M96.4,325c-12.7,3.2-24.7,6.5-35.8,10.1c-1.9,0-3.5-0.9-4.6-2.8
				c-1.4-1.2-1.9-2.8-2-4.8c0-2.6,1.8-4.8,5.3-6.4c2.8-1.1,15.2-3.9,37.1-8.9c25.4-5.5,42.2-8.3,50.3-8.3c8.1,0,12.2,5.1,12.2,15
				v6.2c-0.3,11.5-0.3,19.4-0.3,23.7c0,4.8,0,10.4,0.2,17c0.2,10.8,0.4,18.4,0.4,22.6c-0.4,9.4-5.6,14.1-16.1,14.1
				c-5.3,0-10.6-1.9-15.9-5.5c-2.5-1.8-4.4-3.9-5.8-6c0-5,0.3-7.6,1.4-8c1.9,0,3.9,0.5,6,1.8c3.2,0.7,6.4,1.9,9.5,3.7
				c1.4,0.7,3,1.2,4.6,1.2c2.6-0.4,4.1-2,4.1-4.6c0-5.6-0.2-12.9-0.4-21.9c-0.2-5.6-0.2-11.7-0.2-18c0-6.7,0-15.2,0.3-25.6
				c0-2.1-1.2-3.4-3.7-3.4C134.3,316.4,118.8,319.4,96.4,325z M73.4,309.9c-3.2,0-4.9-1.4-5.1-4.6c-0.4-3.5-1.8-7.8-3.9-13.1
				c-3.9-7.1-7.1-13.2-9.5-18.2c0.3-1.2,1.1-2.5,2.1-3.7c0.9-1.4,2.1-2.3,3.7-2.3c1.4,0,2.7,0.2,3.5,0.4c1.6,0.7,2.8,2.1,3.7,3.9
				l0.3,0.4c20.5-7.1,34.6-11,42.2-12h1.2c2.5,0,4.6,0.9,6.4,2.3c2.1,1.9,3.2,4.6,3.2,8.1c0,2.8-2.3,6.5-6.7,11.1
				c-0.5,0.5-1.1,1.1-1.4,1.6c0.3,0.4,0.5,0.5,0.9,0.9c0.2,0.7,0.3,1.6,0.4,2.5c-0.2,1.8-0.9,3.4-2.1,4.8c-3.9,2.6-9,5.1-15,7.4
				c-6.4,2.8-12.7,5-18.7,6C77.8,308.3,76.1,309.9,73.4,309.9z M59.6,224.4c0.2-3.5,2.1-5.6,6-6.4l37.1,7.7c2.8,0.9,4.4,2.3,4.4,4.1
				c-0.7,4.1-5.1,6-13.6,6c-7.2,0-17.3-1.4-30-4.2C60.8,230.8,59.6,228.3,59.6,224.4z M81.1,384.9c-3.2,0-4.8-1.6-4.9-4.8
				c-0.4-3.5-1.6-8.1-3.4-13.4c-3-8.1-5.7-14.6-7.8-19.8c0.2-1.1,0.7-2.1,1.8-3.4c1.1-1.4,2.5-2.1,3.9-2.1c1.2,0,2.3,0.2,3.2,0.4
				c1.4,0.5,2.5,1.4,3.2,2.6c17.8-6.7,30-10.6,36.7-11.5h1.2c2.8,0,5.3,0.9,7.2,2.5c2.3,2.1,3.5,4.8,3.5,8.3c0,3.2-2.1,7.6-6,12.9
				c-0.7,1.1-1.2,1.8-1.8,2.5c0.7,0.7,1.2,1.2,1.6,1.6c0.2,0.5,0.3,1.2,0.3,2.3c-0.2,1.8-0.9,3.2-1.9,5c-3.9,2-8.5,4.1-14.1,6.2
				c-6.2,2.1-12,3.7-17.3,4.8C86,382.8,84.2,384.7,81.1,384.9z M74.3,286.2c1.2,3.2,2.1,5.8,2.8,8c2.5-0.7,4.8-1.2,6.5-2
				c4.1-1.1,7.9-2.5,11.5-3.9c6.5-5.7,11.7-11,15.3-16.1c-5.1,0-17.7,3.5-37.6,10.3C73.2,283.7,73.7,285,74.3,286.2z M82.6,360.4
				c0.7,3,1.4,5.5,2.1,7.6c2.3-0.7,4.2-1.2,6-1.6c4.2-1.1,8.1-2.3,11.7-3.5c4.9-6.2,8.7-12.2,11.3-17.8c-4.6,0-15.5,3.4-32.5,9.9
				C81.6,356.7,82.1,358.4,82.6,360.4z M233.4,304.6c11.8-1.1,28.4-3,49.6-5.9c12.5-1.1,28.1-2.9,46.4-5.3c7.4-1.1,12.4-1.6,15-2
				c1.4,0,2.8,0.2,3.9,0.4c1.8,1.1,2.6,2.6,2.6,4.4c0,3.2-1.1,5.5-3.2,6.5c-7.4,3.2-22.4,6.4-45.2,9.4c-17.3,1.8-36,3.7-56,6
				c-10.9,1.4-21.4,2.8-31.3,4.3c-6,0.9-9.9,1.2-11.7,1.2c-1.6-0.2-3-1.1-4.4-2.6c-0.9-1.1-1.4-2.6-1.6-4.4c0-1.1,0-2.1,0.2-3.2
				c0-1.6,1.2-2.8,3.5-3.9C207.3,307.6,217.9,306,233.4,304.6z M458.7,273.5c1.8,0,3.4,0.9,4.4,2.6c0.4,0.9,0.5,1.8,0.9,2.6
				c0,2.1-1.1,3.9-2.8,5.3c-8.5,6-21.5,12.2-38.8,18.4c-1.2,5.1-2.6,9.9-4,14.3c0.7,0.4,1.2,0.5,1.6,0.7
				c9.2,5.8,23.1,20.6,41.9,44.6c4.6,5.6,7.4,10.9,8.1,15.9c0,3.4-1.4,5.1-3.9,5.1c-1.2,0-2.6-0.9-4.2-2.5
				c-4.1-4.2-9.4-10.2-15.9-18c-10.2-12-20.9-23.3-31.8-33.7c-0.2,0.4-0.4,0.7-0.4,0.9c-3.4,8.7-7.2,18.5-11.8,29.9
				c-3,6.4-5.6,12.2-8.1,17.3c-2.6,5.3-4.9,9-7.1,11.1c-1.1,0.7-2.3,1.2-3.7,1.2c-2.5-0.4-3.7-1.8-3.9-4.2c0-1.8,0.4-3,1.2-4.1
				c1.6-3.4,3.4-7.1,5.1-11.1c3.5-7.4,7.2-16.1,11.1-25.8c2.8-8.1,5.8-16.8,8.8-26.3c1.1-3.5,2.1-7.1,3-10.6
				c-0.7,0.4-1.1,0.5-1.4,0.5c-9.2,2.5-17.8,3.9-25.6,4.6c-2.3,0-4.2-0.7-5.8-2.5c-1.4-1.6-2.3-3.4-2.3-5.5c0-3.2,1.2-5,4.1-5.6
				c8.3-0.7,17.5-2.3,27.4-4.8c2.5-0.5,4.8-1.2,7.1-2c0.4-2.5,0.9-4.8,1.4-7.2c1.2-8.8,1.9-17,2.3-24.4c-4.6,1.1-8.8,1.8-13.1,2
				h-6.2c-2.5,0-4.6-0.7-6.2-2.1c-2.5-1.8-3.7-4.6-3.7-8.3c0-2.8,0.2-6.2,0.7-10.4c0.7-3.2,1.4-6,2.3-8.7c0.9-2.5,2.6-3.7,5.5-3.9
				h1.2c3.9,0.7,6,3,6,6.9c-1.2,7.8-1.8,12-1.8,13.1c0,0.7,0.9,0.9,2.6,0.9c3.2,0,10.2-1.8,21-5.3c8-2.3,15.5-5.3,23-9.2
				c3.5,0.7,5.5,2.6,5.8,5.6c0,1.9-0.9,3.5-2.5,4.8c-5.6,3.9-12.9,7.4-21.7,11h-0.2c0,1.1,0.2,1.9,0.2,2.8c0,8.5-1,17.8-2.8,28.3
				c11.3-3.9,21.5-8.7,30.7-14.1C457.1,273.7,458,273.6,458.7,273.5z M506.2,271c7.4,0,13.8,0.9,19.4,2.5c8,3,12,8.3,12,16.1
				c-0.7,11-3.3,21.2-7.9,30.7c0.2,0.9,0.3,1.6,0.4,2.1c-0.2,1.8-0.9,3.4-2.3,4.8c-4.6,2.6-10.2,5.1-17.3,7.6
				c-8.3,2.8-16.2,5.1-23.7,6.5c-1.4,0.7-2.3,0.9-3,0.9c-1.4,0-2.6-0.9-3.7-2.6c-1.1-1.4-1.6-3.5-1.6-6.2c0-1.1,0.4-1.9,0.9-2.6
				c-0.2-0.4-0.2-0.9-0.2-1.2c-0.4-5.8-1.1-13.2-2.5-22.1c-2.1-12.7-3.9-23.1-5.7-31.6c0.2-1.4,0.9-2.8,2.1-4.2
				c1.2-1.6,2.6-2.5,4.4-2.5c1.6,0,3,0.2,4.1,0.4c1.8,0.7,3,1.9,3.7,3.5C491.4,271.8,498.5,271,506.2,271z M491.1,327.2
				c1.4-0.2,2.6-0.4,3.7-0.7c7.6-1.6,14.5-3.4,20.7-5.1c0.3-1.4,1.2-2.8,2.7-4.4c3.3-9.5,5.5-17.1,6.5-22.8c0.3-2.8,0.5-4.9,0.5-6.2
				c-2.5-2.5-8.1-3.9-16.8-3.9c-6.7,0.2-13.6,1.1-20.5,2.8c0.4,3.2,0.7,6.9,1.2,11.1c1.2,14.1,2,23.7,2,28.6L491.1,327.2z
				 M582.2,337.8c0.5,0.2,1.1,0.4,1.4,0.4c3,2.5,7.1,5.6,12.2,9.5c5.7,4.4,11.3,8.5,17,12.2c0.9,0.5,1.6,0.9,2.3,1.2
				c1.4-8.8,2.3-20.8,2.8-35.9c0-7.1,0.2-14.5,0.2-22.1c0-4.6-0.2-9.2-0.4-13.8c-6.5,3.2-14,6.7-22.2,10.4c-3.9-0.4-6.2-2.3-6.9-5.8
				v-2.1c0.2-1.6,1.1-2.8,2.8-3.9c3.5-2.5,9-5.5,16.6-8.7c0.2-0.2,0.3-0.4,0.5-0.5c9-8.5,16.6-17.5,22.9-26.9c4.6-7.1,7-11.8,7-14.7
				c0-1.1-2.7-1.8-7.8-1.8c-10.1,0-21.7,2.7-34.8,7.8c-0.5,0-1.1,0-1.6-0.2c0.5,2.8,1.1,5.6,1.6,8.5c2.1,12.2,3.2,20.5,3.2,24.7
				c0,5-1.9,7.6-5.7,7.6c-3.4,0-5.1-1.6-5.3-4.8c-0.4-5.1-1.2-11.5-3-19.2c-3.2-11.1-5.7-20.3-7.6-27.5c0.2-1.4,0.9-2.6,1.9-4.1
				s2.5-2.3,4.2-2.3c1.4,0,2.7,0.2,3.7,0.4c1.8,0.7,3.2,2.1,4.1,4.2c0,0.4,0.2,0.7,0.3,0.9c0.3-0.4,0.7-0.5,1.1-0.9
				c3.2-1.8,8.5-3.7,15.9-5.5c6.5-1.4,13.6-2.1,21-2.1c5.7,0,10.4,0.7,14,1.9c2.8,1.1,5.1,2.6,6.5,4.4c1.1,1.4,1.6,3,1.6,4.8
				c0,5.3-2.5,12.2-7.2,20.8c-4.2,7.1-8.8,13.4-13.4,18.7c0.5,0.4,1.1,0.7,1.4,1.1c0.7,1.4,1.2,2.8,1.2,4.2c0,1.6-0.9,2.8-2.5,3.7
				c-0.2,0.4-0.3,0.4-0.5,0.4c0.4,6,0.7,12.9,0.7,20.5c-0.2,6.4-0.5,12.7-0.9,18.7c1.6-0.9,3-1.6,4.1-2.3c4.9-3.2,11.1-7.8,18.2-14
				c2.5-2.3,4.6-3.5,6-3.9c2.5,0.2,3.7,1.4,4.1,3.5c0,2.1-1.1,4.8-3.2,8c-4.9,7.1-10.9,12.9-17.7,17.7c-4.2,3.2-7.8,5.1-10.6,5.8
				c-0.9,0.2-1.6,0.4-1.9,0.4c-1.2,12.7-2.5,22.4-3.7,29.5c9.4,4.6,19.4,8.6,30.2,12c5.7,1.6,12.2,3,19.2,4.2c5.7,0.7,10.8,1,15.4,1
				l7.2,0c2.1,0,4.2,0,6.7,0.2h3.9c3,0,4.6,0.7,5,2.5c0,1.1-0.5,2.3-1.2,3.5c-0.7,0.9-1.8,1.8-3.3,2.6c-7.8,1.6-17.3,2.5-28.4,2.5
				c-24.4,0-52.5-9.5-84.1-28.2c-5.7-3.5-10.6-7.2-15.2-11.3c-0.2,0-0.3-0.2-0.3-0.4c-0.5,3.4-1,6.5-1.8,9.5c-1.9,8-4,14.3-6.3,19.2
				c-1.4,2.8-3.9,4.4-7.4,4.4c-2.8-0.4-4.2-1.8-4.4-4.6c0-1.4,0.2-2.8,0.9-4.2c4.2-10.6,6.5-22.8,6.5-37.3c0-1.9-0.2-3.9-0.2-5.8
				c-0.2-1.9-0.4-3.5-0.4-4.9c-0.5-1.2-0.9-2.3-0.9-3.4c0-1.4,0.7-3.2,2.5-5.1c1.4-1.1,2.8-1.6,4.4-1.6c1.4,0,2.5,0.2,3.5,0.4
				c1.6,0.9,2.7,2.3,3.4,4.1c0.9,2.8,1.4,6.4,1.4,10.8L582.2,337.8z M773.5,330c-0.3,1.2-0.5,2.3-0.7,3.4c2.3-1.4,4.8-3,7.4-4.8
				c4.2-2.8,7.4-4.6,9.7-5.3c1.1-0.4,1.9-0.5,2.7-0.5c1.8,0,2.8,0.7,3.5,1.8c0.2,0.9,0.3,1.8,0.4,2.5c0,1.1-1.1,2.8-3,5
				c-5.3,6.2-11.8,11.7-19.8,16.3c-10.6,7.4-20.1,12.5-28.8,15.2c-2.3,0.9-4.1,1.2-5.1,1.2c-1.6,0-3-0.7-4.1-2.5
				c-1.1-1.2-1.6-3.2-1.6-5.8c0.2-2.3,1.9-4.1,5.1-5.1c6-3,10.8-5.3,14.1-6.7c1.8-0.9,3.9-2,6.2-3.2V341c0.7-4.6,1.4-9.5,1.9-14.8
				c0.3-4.1,0.5-8,0.5-11.7c0-4.6-0.2-8.8-0.4-12.5c-5.7,2.1-11.5,4.4-17.5,6.7c-3.7-0.2-5.8-2.1-6.5-5.6v-2.1c0-1.6,0.9-3,2.5-4.1
				c4.2-2.5,11.1-5.5,20.5-9c-0.3-2.1-0.5-3.9-0.9-5.6c-1.1-4.1-1.6-7.2-1.6-9.4c0-2.5,0.7-4.6,2.5-6c0.9-0.9,2.3-1.4,4.1-1.6
				c1.8,0,3.2,0.5,4.2,1.6c1.1,1.2,2.1,2.8,3.2,4.8c0.7,3.7,1.2,7.6,1.6,11.8c7.4-2.1,11.8-3.4,13.6-3.4c2.1,0,3.5,0.7,4.4,1.9
				c0.7,1.4,1.2,2.8,1.2,4.2c0,1.8-0.9,3-2.5,3.9c-4.8,2.1-10.1,4.2-15.9,6.4c0.2,5,0.4,9.9,0.4,15.2
				C774.9,316.9,774.4,323.1,773.5,330z M755.4,251.8c-3.2-0.4-4.8-2.8-4.8-7.4c0.5-3.5,2.3-5.5,5.3-5.8c5.3,0.4,10.4,1.1,15.4,2.1
				c6.5,1.6,11.1,3.4,13.6,5.1c1.4,1.4,2.3,3.2,2.3,5.6c-0.2,2.5-1.4,4.1-3.5,4.8C775.4,254.1,766,252.5,755.4,251.8z M806.3,265.5
				c2.3,1.4,4.8,3.2,7.6,5.3c0.3,0.4,0.5,0.5,0.7,0.5c0-0.7,0-1.2,0-1.8c0-9.2-1.2-19.6-3.7-31.3c0-4.2,2.1-6.9,6.7-7.8
				c3.9,0,6.2,2.3,7.1,6.9c2,10.1,3,19.4,3,28.3c0,23.8-3.3,46.3-10,67.1c-4.4,13.6-9.9,25.1-16.2,34.5c-3.9,6.4-8.3,12-13.2,17
				c-1.4,1.1-3,1.8-4.4,1.8c-2.5-0.4-3.7-1.8-3.7-4.4c0-0.7,0.7-1.9,2.1-3.7c4.6-6,8.5-12.4,12-19.8c4.2-7.8,8.3-17.7,12.2-29.3
				c4-13.1,6.7-27.4,7.7-43.1c-4.2-2.5-7.8-4.4-10.4-5.8c-3.2-1.4-6-2.6-8.7-4.1c-2.5-1.1-3.5-3.5-3.5-7.6c0.7-3.4,3-5.1,7.1-5.5
				C800.3,262.7,802.8,263.8,806.3,265.5z M870.8,333.3c-0.9,5.3-1.9,10.2-3,14.8c7.4-2,15.2-4.4,23.3-7.6c1.6-0.7,3-1.4,4.2-1.8
				c1.8,0,3.7,0.5,5.8,1.6c2.5,1.6,3.9,3,3.9,4.4c0,1.1-0.7,2.5-1.8,4.2c-1.4,1.9-3.3,3.4-5.5,4.1c-7.1,3-15.5,5.7-25.1,8
				c-9,2.8-18.4,4.8-28.1,6.4c-4.2,0.5-8.3,0.9-12,0.9H829c-3.7-0.5-5.5-2.5-5.5-6v-2.8c0.7-2.5,2.7-4.6,6-6.4
				c1.4,0.2,2.8,0.2,4.6,0.2c6.7,0,14-0.7,21.7-2.3c0.2-1.6,0.5-3.4,0.9-5.3c0.9-5.3,1.6-11,2.3-17.1c0.3-4.6,0.7-9.2,0.7-13.4
				c0-2.8-0.2-5.5-0.2-8c-6.5,2.5-13.4,5-20.8,7.6c-3.7-0.2-5.8-2.1-6.5-5.6V307c0-1.4,0.9-2.8,2.7-4.1c4.8-2.8,12.7-6.2,23.8-9.9
				c-0.4-3.9-0.9-7.2-1.6-10.2c-1.2-4.2-1.8-7.4-1.8-9.5c0-2.5,0.7-4.6,2.5-6c0.9-0.7,2.3-1.2,4.1-1.6c1.8,0,3.2,0.5,4.2,1.6
				c1.2,1.2,2.3,2.8,3.2,4.8c1.1,5.1,1.8,10.8,2.5,17.1c6-1.6,9.9-2.5,11.7-2.5c1.9,0,3.4,0.7,4.2,2.1s1.4,2.6,1.4,4.1
				c0,1.8-0.9,3-2.7,3.9c-4.2,1.8-8.8,3.7-14,5.7c0,3.2,0.2,6.5,0.2,9.9C872.6,318.3,871.9,325.4,870.8,333.3z M877.8,238.6
				c1.8,1.4,2.8,3,2.8,4.8c0,2.8-1.1,4.6-3,5.5c-7.1,0.5-17.8,2.3-32,5.5c-1.8,0-3.5-1.2-5.1-3.7c-0.9-1.4-1.4-2.8-1.4-4.4
				c0-2.1,1.2-3.5,4.1-4.6c3.4-0.7,9-1.8,17-3.2c6.5-0.9,11-1.4,13.1-1.4C875,237,876.4,237.6,877.8,238.6z"/>
		</defs>
		<clipPath id="SVGID_00000051378756141514312590000014340638447624455563_">
			<use xlink:href="#SVGID_1_"  style="overflow:visible;"/>
		</clipPath>
		<g transform="matrix(1 0 0 1 0 0)" style="clip-path:url(#SVGID_00000051378756141514312590000014340638447624455563_);">
			
				<image style="overflow:visible;enable-background:new    ;" width="1478" height="1108" xlink:href="F12103DAFCCBD2C6.jpeg"  transform="matrix(0.7368 0 0 0.6697 -156 -239)">
			</image>
		</g>
	</g>
</g>
</svg>
