<svg id="圖層_1" data-name="圖層 1" xmlns="http://www.w3.org/2000/svg" viewBox="0 0 385.02 72.26"><defs><style>.cls-1{isolation:isolate;}.cls-2{fill:#264653;}</style></defs><g class="cls-1"><g class="cls-1"><path class="cls-2" d="M28.76,67.72c-4.51-1.12-8.86-.4-13.36.42-2.93.53-6.57,1.77-9.57.86-9.32-2.85-2.66-12.44.65-17C11,45.71,16.17,39.81,19.79,33c.95-1.77,3.31-5.49.7-6.86-2.95-1.55-4.94,2.44-5.09,4.59C15,37.47,4,37.5,4.45,30.75S8.76,17.52,16,15.79c6.25-1.51,13.48,1.67,15.79,7.53,2.78,7.06-1.83,14.45-5.71,20.24-2.29,3.42-4.85,6.67-7.33,10-1,1.29-1.94,2.59-2.88,3.9,1.29-.21,2.58-.4,3.87-.55a33.25,33.25,0,0,1,12,.71C38.51,59.28,35.59,69.41,28.76,67.72Z"/><path class="cls-2" d="M70,67.72c-4.51-1.12-8.87-.4-13.37.42-2.92.53-6.57,1.77-9.56.86-9.33-2.85-2.66-12.44.65-17C52.23,45.71,57.42,39.81,61.05,33c1-1.77,3.3-5.49.7-6.86-3-1.55-4.94,2.44-5.09,4.59-.46,6.72-11.42,6.75-11,0s4.32-13.23,11.52-15C63.47,14.28,70.7,17.46,73,23.32c2.78,7.06-1.83,14.45-5.71,20.24C65,47,62.45,50.23,60,53.53q-1.47,1.94-2.88,3.9c1.28-.21,2.57-.4,3.87-.55a33.25,33.25,0,0,1,12,.71C79.76,59.28,76.85,69.41,70,67.72Z"/><path class="cls-2" d="M110.88,33.59c-2.16-.28-4.31-.47-6.47-.61l-1.77,29.41c-.39,6.46-10.48,6.49-10.09,0q.89-14.76,1.78-29.53-3,.12-5.93.4c-6.46.65-6.4-9.45,0-10.08a98.83,98.83,0,0,1,22.48.32C117.24,24.32,117.3,34.42,110.88,33.59Z"/><path class="cls-2" d="M157.62,25.4a309.69,309.69,0,0,0-5,37.39c-.47,6.45-10.56,6.48-10.09,0,.3-4.21.7-8.41,1.16-12.6h-9.26l-1.89,16c-.75,6.38-10.85,6.43-10.09,0q1.3-11.1,2.62-22.2l1.26-10.69c.37-3.18.34-6.87,1.46-9.87,2.25-6,12-3.41,9.73,2.68-1.08,2.89-1,6.59-1.39,9.65l-.51,4.34H145q1.23-8.73,2.92-17.38C149.14,16.34,158.87,19.06,157.62,25.4Z"/></g><g class="cls-1"><path class="cls-2" d="M213.94,21.45a1.91,1.91,0,0,1,1.68,1c.14.33.21.67.34,1a2.55,2.55,0,0,1-1.08,2c-3.23,2.28-8.21,4.64-14.8,7-.47,2-1,3.77-1.55,5.46.27.13.47.2.6.27,3.5,2.22,8.82,7.87,16,17a13,13,0,0,1,3.09,6.06c0,1.28-.54,2-1.48,2a2.53,2.53,0,0,1-1.61-.94q-2.33-2.41-6.06-6.86a169.39,169.39,0,0,0-12.12-12.86,1.38,1.38,0,0,0-.13.34c-1.28,3.3-2.76,7.06-4.51,11.37-1.14,2.42-2.15,4.65-3.1,6.6a17.13,17.13,0,0,1-2.69,4.24,2.51,2.51,0,0,1-1.41.47A1.57,1.57,0,0,1,183.59,64a2.25,2.25,0,0,1,.47-1.55c.6-1.27,1.28-2.69,1.95-4.24,1.35-2.82,2.76-6.12,4.24-9.82,1.08-3.1,2.22-6.39,3.37-10,.4-1.35.8-2.69,1.14-4a1.24,1.24,0,0,1-.54.2,57.06,57.06,0,0,1-9.76,1.75,2.83,2.83,0,0,1-2.22-.94,3.05,3.05,0,0,1-.87-2.08,1.91,1.91,0,0,1,1.54-2.16,66,66,0,0,0,10.44-1.82c.94-.2,1.81-.47,2.69-.74.13-.94.34-1.81.54-2.76.47-3.36.74-6.46.87-9.28a27.53,27.53,0,0,1-5,.74h-2.35a3.45,3.45,0,0,1-2.36-.81,3.65,3.65,0,0,1-1.41-3.16,30.13,30.13,0,0,1,.27-4,32,32,0,0,1,.87-3.3,2.12,2.12,0,0,1,2.09-1.48h.47a2.47,2.47,0,0,1,2.29,2.62c-.47,3-.68,4.58-.68,5s.34.34,1,.34c1.21,0,3.91-.67,8-2a47,47,0,0,0,8.75-3.5,2.43,2.43,0,0,1,2.22,2.15,2.22,2.22,0,0,1-.94,1.82,42.35,42.35,0,0,1-8.28,4.17h-.07c0,.41.07.74.07,1.08a65.69,65.69,0,0,1-1.07,10.77,62.46,62.46,0,0,0,11.71-5.39C213.34,21.51,213.67,21.45,213.94,21.45Zm18.11-.94a26.93,26.93,0,0,1,7.4.94c3,1.14,4.58,3.16,4.58,6.12a31.39,31.39,0,0,1-3,11.71,6,6,0,0,1,.13.81,3,3,0,0,1-.87,1.82,39,39,0,0,1-6.6,2.89,67.44,67.44,0,0,1-9,2.49,2.52,2.52,0,0,1-1.14.34,1.72,1.72,0,0,1-1.42-1,4,4,0,0,1-.6-2.36,1.62,1.62,0,0,1,.34-1,1.08,1.08,0,0,1-.07-.47c-.14-2.22-.41-5-.94-8.41-.81-4.85-1.48-8.82-2.16-12a3.08,3.08,0,0,1,.81-1.61,2.09,2.09,0,0,1,1.68-.95,9,9,0,0,1,1.55.14,2.53,2.53,0,0,1,1.41,1.35A39.25,39.25,0,0,1,232.05,20.51Zm-5.79,21.4a8,8,0,0,0,1.41-.27c2.9-.61,5.52-1.28,7.88-2a4.18,4.18,0,0,1,1-1.69,62.26,62.26,0,0,0,2.5-8.68,22.92,22.92,0,0,0,.2-2.35c-.94-.95-3.1-1.48-6.4-1.48a34.84,34.84,0,0,0-7.8,1.07c.13,1.21.27,2.63.47,4.24.47,5.39.74,9,.74,10.91Z"/><path class="cls-2" d="M261,46a2.31,2.31,0,0,0,.54.13q1.71,1.41,4.64,3.63c2.15,1.69,4.31,3.24,6.46,4.65.34.2.61.34.87.47a117.59,117.59,0,0,0,1.08-13.66c0-2.69.07-5.52.07-8.42,0-1.75-.07-3.5-.14-5.25-2.49,1.22-5.31,2.56-8.48,4a2.63,2.63,0,0,1-2.62-2.23v-.8A1.92,1.92,0,0,1,264.49,27a34,34,0,0,1,6.32-3.3l.2-.2a61.19,61.19,0,0,0,8.75-10.23c1.75-2.7,2.7-4.51,2.7-5.59,0-.4-1-.67-3-.67a37.23,37.23,0,0,0-13.26,3,1.79,1.79,0,0,1-.61-.07c.2,1.08.4,2.16.61,3.23a69.62,69.62,0,0,1,1.21,9.42c0,1.89-.74,2.9-2.16,2.9a1.77,1.77,0,0,1-2-1.82,48,48,0,0,0-1.14-7.33C260.92,12,260,8.53,259.24,5.77A3.16,3.16,0,0,1,260,4.22a2,2,0,0,1,1.61-.88,8.22,8.22,0,0,1,1.42.14,2.81,2.81,0,0,1,1.54,1.61.51.51,0,0,0,.14.34c.13-.14.27-.2.4-.34A25.29,25.29,0,0,1,271.15,3a37.89,37.89,0,0,1,8-.81,16.64,16.64,0,0,1,5.32.74A5.85,5.85,0,0,1,287,4.62a3,3,0,0,1,.6,1.82c0,2-.94,4.64-2.76,7.94a50.32,50.32,0,0,1-5.11,7.13,4.22,4.22,0,0,1,.54.41,3.84,3.84,0,0,1,.47,1.61,1.6,1.6,0,0,1-.95,1.42.18.18,0,0,1-.2.13c.14,2.29.27,4.91.27,7.81-.07,2.42-.2,4.85-.33,7.13.6-.33,1.14-.6,1.54-.87A60,60,0,0,0,288,33.83a5.94,5.94,0,0,1,2.28-1.48,1.49,1.49,0,0,1,1.55,1.35,5.92,5.92,0,0,1-1.21,3,27.75,27.75,0,0,1-6.73,6.73,12.39,12.39,0,0,1-4,2.22,6.9,6.9,0,0,1-.74.13c-.47,4.85-.94,8.55-1.41,11.24a80,80,0,0,0,11.51,4.58c2.15.6,4.64,1.14,7.33,1.61a47.69,47.69,0,0,0,5.86.41h2.76c.81,0,1.61,0,2.55.06h1.49c1.14,0,1.75.27,1.88.95a2.93,2.93,0,0,1-.47,1.34,4,4,0,0,1-1.28,1,54.69,54.69,0,0,1-10.84.94c-9.28,0-20-3.63-32-10.76a42.91,42.91,0,0,1-5.79-4.31.14.14,0,0,1-.13-.14c-.21,1.28-.41,2.49-.68,3.64a40.7,40.7,0,0,1-2.42,7.33,3,3,0,0,1-2.83,1.69,1.69,1.69,0,0,1-1.68-1.75,3.5,3.5,0,0,1,.34-1.62,37.83,37.83,0,0,0,2.49-14.2c0-.74-.07-1.48-.07-2.22s-.14-1.35-.14-1.89a3.28,3.28,0,0,1-.33-1.27,3.06,3.06,0,0,1,.94-2,2.74,2.74,0,0,1,1.68-.6,8.35,8.35,0,0,1,1.35.13,3,3,0,0,1,1.28,1.55,14,14,0,0,1,.54,4.11Z"/><path class="cls-2" d="M333.88,43.05a8.93,8.93,0,0,0-.27,1.28c.87-.54,1.81-1.14,2.82-1.82a16.55,16.55,0,0,1,3.71-2,3.44,3.44,0,0,1,1-.2,1.48,1.48,0,0,1,1.35.68,5,5,0,0,1,.14.94,3.72,3.72,0,0,1-1.15,1.88A28.7,28.7,0,0,1,333.94,50a40.33,40.33,0,0,1-11,5.79,5.83,5.83,0,0,1-2,.47,1.75,1.75,0,0,1-1.55-.94,3.39,3.39,0,0,1-.6-2.22c.06-.87.74-1.55,1.95-1.95,2.29-1.15,4.11-2,5.38-2.56.68-.34,1.48-.74,2.36-1.21v-.14c.27-1.75.54-3.63.74-5.65.13-1.55.2-3,.2-4.44,0-1.75-.07-3.37-.13-4.78-2.16.81-4.38,1.68-6.67,2.56a2.43,2.43,0,0,1-2.49-2.16V32a1.86,1.86,0,0,1,1-1.55A56.18,56.18,0,0,1,329,27c-.13-.81-.2-1.48-.33-2.16a15.29,15.29,0,0,1-.61-3.56A2.78,2.78,0,0,1,329,19a2.53,2.53,0,0,1,1.55-.61,2.19,2.19,0,0,1,1.62.61,11.1,11.1,0,0,1,1.21,1.81,42.11,42.11,0,0,1,.6,4.51A32.71,32.71,0,0,1,339.13,24a1.91,1.91,0,0,1,1.68.75,3.63,3.63,0,0,1,.47,1.61,1.63,1.63,0,0,1-.94,1.48q-2.73,1.21-6.06,2.42c.07,1.89.13,3.77.13,5.79A57.69,57.69,0,0,1,333.88,43.05ZM327,13.24c-1.21-.14-1.82-1.08-1.82-2.83a2.27,2.27,0,0,1,2-2.22,39.57,39.57,0,0,1,5.86.81A16,16,0,0,1,338.25,11a2.88,2.88,0,0,1,.88,2.15,1.91,1.91,0,0,1-1.35,1.82A59.14,59.14,0,0,0,327,13.24Zm19.38,5.25c.88.53,1.82,1.21,2.9,2,.13.13.2.2.27.2V20a57.55,57.55,0,0,0-1.42-11.91,2.77,2.77,0,0,1,2.56-3c1.48,0,2.36.87,2.69,2.62a57.14,57.14,0,0,1,1.15,10.77,83,83,0,0,1-3.84,25.58,51.64,51.64,0,0,1-6.19,13.12,34,34,0,0,1-5.05,6.46,2.94,2.94,0,0,1-1.68.68,1.5,1.5,0,0,1-1.41-1.69,3.12,3.12,0,0,1,.8-1.41,41.79,41.79,0,0,0,4.58-7.54,69.63,69.63,0,0,0,4.64-11.17,71.46,71.46,0,0,0,3-16.42c-1.62-.94-3-1.68-4-2.22-1.21-.54-2.28-1-3.29-1.55s-1.35-1.35-1.35-2.89a2.6,2.6,0,0,1,2.69-2.09A7.77,7.77,0,0,1,346.39,18.49ZM371,44.33c-.34,2-.74,3.9-1.14,5.65a80.66,80.66,0,0,0,8.88-2.89,12.8,12.8,0,0,1,1.62-.67,5.08,5.08,0,0,1,2.22.6c.94.61,1.48,1.15,1.48,1.69a3.67,3.67,0,0,1-.68,1.61,4.22,4.22,0,0,1-2.08,1.55,62.9,62.9,0,0,1-9.56,3A79,79,0,0,1,361,57.32a38.06,38.06,0,0,1-4.58.34H355a2.11,2.11,0,0,1-2.09-2.29V54.29a4.15,4.15,0,0,1,2.29-2.42,13.58,13.58,0,0,0,1.75.07,41,41,0,0,0,8.28-.88c.07-.6.2-1.28.34-2,.33-2,.6-4.17.87-6.53.14-1.75.27-3.5.27-5.11,0-1.08-.07-2.09-.07-3-2.49.94-5.11,1.88-7.94,2.89a2.42,2.42,0,0,1-2.49-2.15V34.3a2,2,0,0,1,1-1.55A51.21,51.21,0,0,1,366.32,29a28.79,28.79,0,0,0-.61-3.91,14,14,0,0,1-.67-3.63,2.79,2.79,0,0,1,.94-2.29,3.76,3.76,0,0,1,1.55-.61,2.15,2.15,0,0,1,1.61.61A6,6,0,0,1,370.35,21c.41,1.95.68,4.1.95,6.52a25,25,0,0,1,4.44-.94,1.75,1.75,0,0,1,1.61.81,2.85,2.85,0,0,1,.54,1.55,1.57,1.57,0,0,1-1,1.48c-1.61.67-3.36,1.41-5.31,2.15,0,1.21.06,2.49.06,3.77A63.65,63.65,0,0,1,371,44.33Zm2.69-36.07a2.37,2.37,0,0,1,1.08,1.81,2,2,0,0,1-1.15,2.09,90.15,90.15,0,0,0-12.18,2.09,2.54,2.54,0,0,1-1.95-1.42,3.16,3.16,0,0,1-.54-1.68c0-.81.47-1.35,1.55-1.75q1.92-.4,6.46-1.21a49.86,49.86,0,0,1,5-.54A2.72,2.72,0,0,1,373.65,8.26Z"/></g></g></svg>